# xmcd
#
# Track frame offsets:
#	150
#	9822
#	24447
#	34647
#	47035
#	59325
#	67272
#	78897
#	90750
#	101397
#	117142
#	133490
#	149697
#	164087
#	178422
#	191622
#	203172
#	216992
#	231512
#
# Disc length: 3322 seconds
#
# Revision: 1
# Processed by: cddbd v1.5PL3 Copyright (c) Steve Scherf et al.
# Submitted via: CDex 1.50Beta5
#
DISCID=130cf813
DTITLE=Various Artist - マシュ・ケ・ナダ
DYEAR=1900
DGENRE=Jazz -> Japanese Fusion
TTITLE0=ワン・ノート・サンバ
TTITLE1=メディテイション
TTITLE2=ウェイヴ
TTITLE3=サン・ホセへの道
TTITLE4=ドントゴー・ブレイキング・マイハート
TTITLE5=フライ・ミー・トゥー・ザ・ムーン
TTITLE6=マシュ・ケ・ナダ
TTITLE7=ディ・バイ・ディ
TTITLE8=燃ゆる初恋
TTITLE9=ミスティ・ローゼズ
TTITLE10=イパネマの娘
TTITLE11=フェリシダージ
TTITLE12=フール・オン・ザ・ヒル
TTITLE13=ビートでジャンプ
TTITLE14=コルコバード
TTITLE15=ジンジー
TTITLE16=ナイト・アンド・ディ
TTITLE17=オールド・デヴィル・ムーン
TTITLE18=カーニヴァルの朝
EXTD=
EXTT0=
EXTT1=
EXTT2=
EXTT3=
EXTT4=
EXTT5=
EXTT6=
EXTT7=
EXTT8=
EXTT9=
EXTT10=
EXTT11=
EXTT12=
EXTT13=
EXTT14=
EXTT15=
EXTT16=
EXTT17=
EXTT18=
PLAYORDER=
